<?xml version="1.0" encoding="UTF-8"?>
<svg width="311px" height="365px" viewBox="0 0 311 365" version="1.1" xmlns="http://www.w3.org/2000/svg" xmlns:xlink="http://www.w3.org/1999/xlink">
    <title>image_pizza</title>
    <defs>
        <circle id="path-1" cx="149.5" cy="149.5" r="149.5"></circle>
    </defs>
    <g id="-📱-UI" stroke="none" stroke-width="1" fill="none" fill-rule="evenodd">
        <g id="03-Walkthrough" transform="translate(-30.000000, -67.000000)">
            <g id="image_pizza" transform="translate(30.095305, 67.195596)">
                <g id="2" transform="translate(8.000000, 65.000000)">
                    <mask id="mask-2" fill="white">
                        <use xlink:href="#path-1"></use>
                    </mask>
                    <use id="Mask" fill="#F1EFDD" xlink:href="#path-1"></use>
                    <g id="21" mask="url(#mask-2)" fill-rule="nonzero">
                        <g transform="translate(223.000000, 232.000000)" id="Path">
                            <path d="M34.9,28.2 C30.1,33 23.1,38.5 16.8,42.2 C16.3,42.5 15.8,42.8 15.3,43.1 C9.6,46.3 3,49.7 1.2,47.9 C-2,44.7 7.5,29.8 15.7,19.9 C16.1,19.4 16.4,19 16.8,18.6 C18.2,17 19.5,15.5 20.8,14.2 C30.5,4.5 34,7.2 37.9,11.1 C41.4,14.6 44,18 37,25.9 C36.6,26.3 36.2,26.7 35.8,27.2 C35.6,27.6 35.2,27.9 34.9,28.2 Z" fill="#FF7B65"></path>
                            <path d="M48.5,10.1 L48.5,10.1 C47,9.2 45.3,8.8 43.7,8.8 C44.5,7.4 45,5.7 45,4 L45,4 C43.3,4 41.7,4.4 40.3,5.2 C40.3,3.6 39.9,2 39,0.5 L39,0.5 C35.6,2.4 33.7,6.1 34,9.8 C34.1,11 35.2,13.7 35.3,13.9 C35.4,14 38.1,15.1 39.4,15.2 C42.9,15.4 46.6,13.6 48.5,10.1 Z" fill="#22A45D"></path>
                            <path d="M35.9,27.2 L29.5,20.8 C29.2,20.5 29.2,19.9 29.5,19.6 C29.8,19.3 30.4,19.3 30.7,19.6 L37,25.9 C36.7,26.4 36.3,26.8 35.9,27.2 Z" fill="#F2F2F2"></path>
                            <path d="M16.8,42.2 C16.3,42.5 15.8,42.8 15.3,43.1 L11.3,39.1 C11,38.8 11,38.2 11.3,37.9 C11.6,37.6 12.2,37.6 12.5,37.9 L16.8,42.2 Z" fill="#F2F2F2"></path>
                            <path d="M25.1,28.2 C24.8,28.5 24.2,28.5 23.9,28.2 L15.7,20 C16.1,19.5 16.4,19.1 16.8,18.7 L25.2,27.1 C25.5,27.3 25.5,27.8 25.1,28.2 Z" fill="#F2F2F2"></path>
                        </g>
                    </g>
                    <g id="171" mask="url(#mask-2)">
                        <g transform="translate(77.000000, 77.000000)">
                            <path d="M75.8,0.5 L75.8,14.6 C106.1,14.6 130.7,39.2 130.7,69.2 L144.8,69.2 C144.5,31.4 113.6,0.5 75.8,0.5 Z" id="Path" fill="#F8B64C" fill-rule="nonzero"></path>
                            <path d="M138.2,75.8 C138.2,113.9 107.3,144.5 69.5,144.5 C31.4,144.5 0.8,113.6 0.8,75.8 C0.8,37.7 31.7,7.1 69.5,7.1 L69.5,21.2 C39.2,21.2 14.9,45.8 14.9,75.8 C14.9,106.1 39.5,130.7 69.5,130.7 C99.8,130.7 124.4,106.1 124.4,75.8 L138.2,75.8 Z" id="Path" fill="#F8B64C" fill-rule="nonzero"></path>
                            <path d="M130.4,69.2 C130.4,38.9 105.8,14.6 75.5,14.6 L75.5,69.2 L130.4,69.2 Z" id="Path" fill="#FFD15C" fill-rule="nonzero"></path>
                            <path d="M124.1,75.8 C124.1,106.1 99.5,130.7 69.2,130.7 C38.9,130.7 14.6,106.1 14.6,75.8 C14.6,45.5 39.2,21.2 69.2,21.2 L69.2,75.8 L124.1,75.8 Z" id="Path" fill="#FFD15C" fill-rule="nonzero"></path>
                            <g id="Group" stroke-width="1" fill="none" fill-rule="evenodd" transform="translate(89.000000, 91.000000)">
                                <circle id="Oval" fill="#FF7B65" fill-rule="nonzero" cx="9.9" cy="10" r="9.9"></circle>
                                <g transform="translate(8.000000, 1.000000)" fill="#E76A56" fill-rule="nonzero" id="Oval">
                                    <circle cx="1.9" cy="2.4" r="1.8"></circle>
                                    <circle cx="1.9" cy="15.9" r="1.8"></circle>
                                </g>
                                <g transform="translate(2.000000, 2.000000)" fill="#E76A56" fill-rule="nonzero" id="Oval">
                                    <circle transform="translate(12.660340, 3.217460) rotate(-45.008103) translate(-12.660340, -3.217460) " cx="12.66034" cy="3.21746" r="1.79998276"></circle>
                                    <circle transform="translate(3.008590, 12.807470) rotate(-45.000000) translate(-3.008590, -12.807470) " cx="3.00859" cy="12.80747" r="1.79998274"></circle>
                                </g>
                                <g transform="translate(1.000000, 8.000000)" fill="#E76A56" fill-rule="nonzero" id="Oval">
                                    <circle cx="15.8" cy="2" r="1.8"></circle>
                                    <circle cx="2" cy="2" r="1.8"></circle>
                                </g>
                                <g transform="translate(2.000000, 2.000000)" fill="#E76A56" fill-rule="nonzero" id="Oval">
                                    <circle transform="translate(12.624250, 12.827810) rotate(-45.000000) translate(-12.624250, -12.827810) " cx="12.62425" cy="12.82781" r="1.79998274"></circle>
                                    <circle transform="translate(3.045220, 3.188240) rotate(-44.991897) translate(-3.045220, -3.188240) " cx="3.04522" cy="3.18824" r="1.79998276"></circle>
                                </g>
                            </g>
                            <g id="Group-Copy" stroke-width="1" fill="none" fill-rule="evenodd" transform="translate(26.000000, 61.000000)">
                                <circle id="Oval" fill="#FF7B65" fill-rule="nonzero" cx="9.9" cy="10" r="9.9"></circle>
                                <g id="Group" transform="translate(8.000000, 1.000000)" fill="#E76A56" fill-rule="nonzero">
                                    <circle id="Oval" cx="1.9" cy="2.4" r="1.8"></circle>
                                    <circle id="Oval" cx="1.9" cy="15.9" r="1.8"></circle>
                                </g>
                                <g id="Group" transform="translate(2.000000, 2.000000)" fill="#E76A56" fill-rule="nonzero">
                                    <circle id="Oval" transform="translate(12.660340, 3.217460) rotate(-45.008103) translate(-12.660340, -3.217460) " cx="12.66034" cy="3.21746" r="1.79998276"></circle>
                                    <circle id="Oval" transform="translate(3.008590, 12.807470) rotate(-45.000000) translate(-3.008590, -12.807470) " cx="3.00859" cy="12.80747" r="1.79998274"></circle>
                                </g>
                                <g id="Group" transform="translate(1.000000, 8.000000)" fill="#E76A56" fill-rule="nonzero">
                                    <circle id="Oval" cx="15.8" cy="2" r="1.8"></circle>
                                    <circle id="Oval" cx="2" cy="2" r="1.8"></circle>
                                </g>
                                <g id="Group" transform="translate(2.000000, 2.000000)" fill="#E76A56" fill-rule="nonzero">
                                    <circle id="Oval" transform="translate(12.624250, 12.827810) rotate(-45.000000) translate(-12.624250, -12.827810) " cx="12.62425" cy="12.82781" r="1.79998274"></circle>
                                    <circle id="Oval" transform="translate(3.045220, 3.188240) rotate(-44.991897) translate(-3.045220, -3.188240) " cx="3.04522" cy="3.18824" r="1.79998276"></circle>
                                </g>
                            </g>
                            <path d="M56.9,38 C56.3,38 55.7,37.7 55.4,37.4 C54.5,36.5 54.5,35 56,33.2 C54.5,31.4 54.5,29.9 55.4,29 C56.3,28.1 57.8,28.1 59.6,29.6 C61.4,28.1 62.9,28.1 63.8,29 C64.7,29.9 64.7,31.4 63.2,33.2 C64.7,35 64.7,36.5 63.8,37.4 C62.9,38.3 61.4,38.3 59.6,36.8 C58.4,37.7 57.5,38 56.9,38 Z M56.9,29.6 C56.6,29.6 56.3,29.6 56,29.9 C55.4,30.5 55.7,31.7 56.9,32.9 L57.2,33.2 L56.9,33.5 C55.7,35 55.4,36.2 56,36.5 C56.6,37.1 57.8,36.8 59,35.6 L59.3,35.3 L59.6,35.6 C61.1,36.8 62.3,37.1 62.6,36.5 C63.2,35.9 62.9,34.7 61.7,33.5 L61.4,33.2 L61.7,32.9 C62.9,31.4 63.2,30.2 62.6,29.9 C62,29.3 60.8,29.6 59.6,30.8 L59.3,31.1 L59,30.5 C58.1,29.9 57.5,29.6 56.9,29.6 Z" id="Shape" fill="#FF7B65" fill-rule="nonzero"></path>
                            <g id="Group" stroke-width="1" fill="none" fill-rule="evenodd" transform="translate(35.000000, 41.000000)">
                                <circle id="Oval" fill="#40596B" fill-rule="nonzero" cx="4.2" cy="3.3" r="2.7"></circle>
                                <circle id="Oval" fill="#FFFFFF" fill-rule="nonzero" cx="5.1" cy="2.4" r="1"></circle>
                            </g>
                            <g id="Group" stroke-width="1" fill="none" fill-rule="evenodd" transform="translate(53.000000, 92.000000)">
                                <circle id="Oval" fill="#40596B" fill-rule="nonzero" cx="3.6" cy="4.2" r="2.7"></circle>
                                <circle id="Oval" fill="#FFFFFF" fill-rule="nonzero" cx="4.2" cy="3.3" r="1"></circle>
                            </g>
                            <g id="Group" stroke-width="1" fill="none" fill-rule="evenodd" transform="translate(110.000000, 77.000000)">
                                <circle id="Oval" fill="#40596B" fill-rule="nonzero" cx="4.2" cy="5.1" r="2.7"></circle>
                                <circle id="Oval" fill="#FFFFFF" fill-rule="nonzero" cx="5.1" cy="3.9" r="1"></circle>
                            </g>
                            <g id="Group" stroke-width="1" fill="none" fill-rule="evenodd" transform="translate(110.000000, 35.000000)">
                                <circle id="Oval" fill="#40596B" fill-rule="nonzero" cx="4.5" cy="4.8" r="2.7"></circle>
                                <circle id="Oval" fill="#FFFFFF" fill-rule="nonzero" cx="5.4" cy="3.9" r="1"></circle>
                            </g>
                            <g id="Group" stroke-width="1" fill="none" fill-rule="evenodd" transform="translate(80.000000, 107.000000)">
                                <circle id="Oval" fill="#40596B" fill-rule="nonzero" cx="3.6" cy="4.2" r="2.7"></circle>
                                <circle id="Oval" fill="#FFFFFF" fill-rule="nonzero" cx="4.2" cy="3" r="1"></circle>
                            </g>
                            <circle id="Oval" fill="#FFFFFF" fill-rule="nonzero" cx="56.6" cy="54.8" r="4.5"></circle>
                            <path d="M72.8,94.1 C74.6,92.6 74.9,89.9 73.4,87.8 C71.9,86 69.2,85.7 67.1,87.2 C66.5,87.8 66.8,89 67.4,90.2 L64.1,92.9 L66.5,95.9 L69.8,93.2 C71,94.1 72.2,94.7 72.8,94.1 Z" id="Path" fill="#22A45D" fill-rule="nonzero"></path>
                            <path d="M36.2,95 C32.9,95 30.2,97.7 30.2,101 C30.2,104.3 32.9,107 36.2,107 C39.5,107 42.2,104.3 42.2,101 C42.2,97.7 39.5,95 36.2,95 Z M36.2,104.9 C34.1,104.9 32.6,103.1 32.6,101.3 C32.6,99.2 34.4,97.7 36.2,97.7 C38.3,97.7 39.8,99.5 39.8,101.3 C39.8,103.1 38.3,104.9 36.2,104.9 Z" id="Shape" fill="#FF7B65" fill-rule="nonzero"></path>
                            <path d="M97.1,49.4 C94.4,47 93.8,43.1 96.2,40.4 C98.6,37.7 102.5,37.1 105.2,39.5 C106.1,40.4 105.8,42.2 104.9,44 L109.7,47.9 L106.1,52.1 L101.3,48.2 C99.8,49.4 98,50.3 97.1,49.4 Z" id="Path" fill="#22A45D" fill-rule="nonzero"></path>
                            <path d="M120.5,61.4 C123.8,61.4 126.5,58.7 126.5,55.4 C126.5,52.1 123.8,49.4 120.5,49.4 C117.2,49.4 114.5,52.1 114.5,55.4 C114.5,58.7 117.2,61.4 120.5,61.4 Z M120.5,51.5 C122.6,51.5 124.1,53.3 124.1,55.1 C124.1,57.2 122.3,58.7 120.5,58.7 C118.4,58.7 116.9,56.9 116.9,55.1 C116.9,53 118.4,51.5 120.5,51.5 Z" id="Shape" fill="#E76A56" fill-rule="nonzero"></path>
                            <path d="M83,65.3 C83,64.1 84.2,63.2 85.1,63.5 C89,63.8 92.3,60.8 92.6,56.9 C92.6,55.7 93.8,54.8 94.7,55.1 C95.9,55.1 96.8,56.3 96.5,57.2 C96.2,63.5 90.8,68 84.5,67.7 C83.6,67.4 82.7,66.5 83,65.3 Z" id="Path" fill="#5DBB88" fill-rule="nonzero"></path>
                            <path d="M58.1,112.4 C59.3,112.4 60.2,113.3 60.2,114.2 C60.5,118.1 63.8,121.1 67.7,120.8 C68.9,120.8 69.8,121.7 69.8,122.6 C69.8,123.8 68.9,124.7 68,124.7 C61.7,125.3 56.3,120.5 56,114.5 C56,113.6 56.9,112.4 58.1,112.4 Z" id="Path" fill="#5DBB88" fill-rule="nonzero"></path>
                            <circle id="Oval" fill="#F8B64C" fill-rule="nonzero" cx="86.3" cy="31.4" r="7.2"></circle>
                        </g>
                    </g>
                </g>
                <g id="1" transform="translate(0.904695, 0.804404)" fill-rule="nonzero">
                    <g id="21" transform="translate(230.095305, 296.195596)">
                        <path d="M34.9,28.2 C30.1,33 23.1,38.5 16.8,42.2 C16.3,42.5 15.8,42.8 15.3,43.1 C9.6,46.3 3,49.7 1.2,47.9 C-2,44.7 7.5,29.8 15.7,19.9 C16.1,19.4 16.4,19 16.8,18.6 C18.2,17 19.5,15.5 20.8,14.2 C30.5,4.5 34,7.2 37.9,11.1 C41.4,14.6 44,18 37,25.9 C36.6,26.3 36.2,26.7 35.8,27.2 C35.6,27.6 35.2,27.9 34.9,28.2 Z" id="Path" fill="#FF7B65"></path>
                        <path d="M48.5,10.1 L48.5,10.1 C47,9.2 45.3,8.8 43.7,8.8 C44.5,7.4 45,5.7 45,4 L45,4 C43.3,4 41.7,4.4 40.3,5.2 C40.3,3.6 39.9,2 39,0.5 L39,0.5 C35.6,2.4 33.7,6.1 34,9.8 C34.1,11 35.2,13.7 35.3,13.9 C35.4,14 38.1,15.1 39.4,15.2 C42.9,15.4 46.6,13.6 48.5,10.1 Z" id="Path" fill="#22A45D"></path>
                        <path d="M35.9,27.2 L29.5,20.8 C29.2,20.5 29.2,19.9 29.5,19.6 C29.8,19.3 30.4,19.3 30.7,19.6 L37,25.9 C36.7,26.4 36.3,26.8 35.9,27.2 Z" id="Path" fill="#F2F2F2"></path>
                        <path d="M16.8,42.2 C16.3,42.5 15.8,42.8 15.3,43.1 L11.3,39.1 C11,38.8 11,38.2 11.3,37.9 C11.6,37.6 12.2,37.6 12.5,37.9 L16.8,42.2 Z" id="Path" fill="#F2F2F2"></path>
                        <path d="M25.1,28.2 C24.8,28.5 24.2,28.5 23.9,28.2 L15.7,20 C16.1,19.5 16.4,19.1 16.8,18.7 L25.2,27.1 C25.5,27.3 25.5,27.8 25.1,28.2 Z" id="Path" fill="#F2F2F2"></path>
                    </g>
                    <g id="152" transform="translate(18.000000, 45.000000)">
                        <path d="M35.5,35.5 C43.9,27.1 43.9,13.6 35.5,5.2 L5.2,35.5 C13.6,43.9 27.2,43.9 35.5,35.5 Z" id="Path" fill="#FF7058"></path>
                        <path d="M38.8,2 C49,12.1 49,28.6 38.8,38.8 C28.6,49 12.1,49 2,38.8 L0.5,40.3 C11.5,51.3 29.3,51.3 40.3,40.3 C51.3,29.3 51.3,11.5 40.3,0.5 L38.8,2 Z" id="Path" fill="#22A45D"></path>
                        <rect id="Rectangle" fill="#F2F2F2" transform="translate(3.630380, 37.241660) rotate(-45.000000) translate(-3.630380, -37.241660) " x="1.33040206" y="37.19166" width="4.59995589" height="1"></rect>
                        <rect id="Rectangle" fill="#F2F2F2" transform="translate(37.183680, 3.622740) rotate(-45.000000) translate(-37.183680, -3.622740) " x="34.8837021" y="3.57274" width="4.59995589" height="1"></rect>
                        <path d="M38.8,38.8 C49,28.6 49,12.1 38.8,2 L35.5,5.3 C43.9,13.7 43.9,27.2 35.5,35.6 C27.1,44 13.6,44 5.2,35.6 L2,38.8 C12.1,49 28.6,49 38.8,38.8 Z" id="Path" fill="#F2F2F2"></path>
                        <g id="Group" transform="translate(12.000000, 12.000000)" fill="#FFFFFF">
                            <circle id="Oval" transform="translate(19.603120, 2.560300) rotate(-45.000000) translate(-19.603120, -2.560300) " cx="19.60312" cy="2.5603" r="1.49998561"></circle>
                            <circle id="Oval" transform="translate(11.114220, 11.064800) rotate(-45.000000) translate(-11.114220, -11.064800) " cx="11.11422" cy="11.0648" r="1.49998561"></circle>
                            <circle id="Oval" transform="translate(2.625320, 19.569300) rotate(-45.000000) translate(-2.625320, -19.569300) " cx="2.62532" cy="19.5693" r="1.49998561"></circle>
                            <g transform="translate(8.000000, 8.000000)" id="Oval">
                                <circle transform="translate(11.199690, 2.684150) rotate(-45.000000) translate(-11.199690, -2.684150) " cx="11.19969" cy="2.68415" r="1.49998561"></circle>
                                <circle transform="translate(2.710790, 11.188650) rotate(-45.000000) translate(-2.710790, -11.188650) " cx="2.71079" cy="11.18865" r="1.49998561"></circle>
                            </g>
                        </g>
                        <circle id="Oval" fill="#FFFFFF" transform="translate(30.796160, 30.808200) rotate(-45.000000) translate(-30.796160, -30.808200) " cx="30.79616" cy="30.8082" r="1.49998561"></circle>
                    </g>
                    <g id="121" transform="translate(206.000000, 49.000000)">
                        <path d="M0.7,30.6 C1,29.8 2.3,28.1 3.1,28.2 C7.4,28.4 21.2,28.6 27.2,22 C27.2,22 31,18.9 32.2,11.3 C32.2,11.3 31.6,5 31.1,2.7 C31,2.2 31.1,1.7 31.4,1.3 L31.4,1.3 C31.8,0.7 32.6,0.5 33.3,0.7 L34.7,1 C35.7,1.3 36.3,2.1 36.4,3.1 L36.6,8.8 C36.6,8.8 44.9,12.4 41.7,24.4 C41.7,24.4 37,37.9 18.1,40 C18.1,40 9,41.7 0.8,33.6 C0.4,33.1 0.5,31.3 0.7,30.6 Z" id="Path" fill="#22A45D"></path>
                        <path d="M32.1,42.5 C32.1,42.5 24.2,47.5 13.6,42.7 C12.4,42.2 12.4,39.7 12.4,39.7 C15.7,40.3 18,39.9 18,39.9 C37,37.9 41.7,24.4 41.7,24.4 C44.9,12.4 36.6,8.8 36.6,8.8 C36.6,8.8 35.5,7.6 32.9,6.7 C32.4,5.7 31.8,4.7 31.4,3.9 C31.3,3.4 31.3,3 31.2,2.7 C31.1,2.2 31.2,1.7 31.5,1.3 L31.5,1.3 C31.9,0.7 32.7,0.5 33.4,0.7 L34.7,1 C35.4,1.2 35.9,1.7 36.2,2.3 C36.2,2.3 36.2,2.4 36.3,2.4 L38.2,6.8 C38.2,6.8 47.2,7.2 48.5,19.5 C48.5,19.5 49,33.7 32.1,42.5 Z" id="Path" fill="#30AC68"></path>
                        <path d="M36.2,2.3 C36,1.7 35.4,1.2 34.7,1 L33.4,0.6 C32.7,0.4 32,0.7 31.5,1.2 L31.5,1.2 C31.2,1.6 31.1,2.1 31.2,2.6 C31.3,2.9 31.3,3.4 31.4,3.8 C31.2,3.6 31,3.3 30.9,3 C30.6,2.6 30.6,2.1 30.7,1.6 L30.7,1.6 C30.9,0.9 31.5,0.4 32.2,0.3 L33.6,0.2 C34.6,0.1 35.5,0.7 35.9,1.6 L36.2,2.3 Z" id="Path" fill="#136D3C"></path>
                        <path d="M36.6,8.8 C36.6,8.8 35.5,7.6 32.9,6.7 C34,8.7 34.9,10.7 34.9,10.7 C36.5,18.2 34.1,22.5 34.1,22.5 C30.8,30.8 17.9,35.6 13.8,36.9 C13.1,37.1 12.6,37.8 12.5,38.6 L12.5,39.8 C15.8,40.4 18.1,40 18.1,40 C37,37.9 41.7,24.4 41.7,24.4 C44.9,12.4 36.6,8.8 36.6,8.8 Z" id="Path" fill="#5DBB88"></path>
                    </g>
                    <g id="166" transform="translate(0.000000, 257.000000)">
                        <rect id="Rectangle" fill="#EEF8F2" transform="translate(38.621275, 38.677255) rotate(-45.000000) translate(-38.621275, -38.677255) " x="36.221298" y="32.527314" width="4.79995397" height="12.299882"></rect>
                        <path d="M38.2,34.8 L36,32.6 L32.6,36 L34.8,38.2 C35.6,37.9 36.3,37.4 36.9,36.9 C37.5,36.3 37.9,35.6 38.2,34.8 Z" id="Path" fill="#DBEDE2"></path>
                        <path d="M35.7,35.7 C31.6,39.8 14.6,34.9 6.2,26.5 C-2.2,18.1 -0.3,11 5.3,5.3 C9.1,1.6 13.5,-0.5 18.4,1 C19.4,1.3 20.5,1.7 21.5,2.3 C23.1,3.2 24.8,4.5 26.5,6.2 C27.3,7 28.2,7.9 28.9,9 C29.4,9.7 30,10.4 30.4,11.2 C31.8,13.3 33,15.6 33.9,17.9 C34.2,18.6 34.5,19.2 34.7,19.9 C35.7,22.5 36.4,25 36.7,27.3 C36.8,28 36.9,28.7 36.9,29.4 C37.3,32.1 36.8,34.5 35.7,35.7 Z" id="Path" fill="#FF7B65"></path>
                        <path d="M44.1,44.1 C45.3,44.5 46.6,44.2 47.5,43.3 C48.8,42 48.8,39.8 47.5,38.5 C46.2,37.2 44,37.2 42.7,38.5 C41.8,39.4 41.5,40.8 41.9,41.9 C40.7,41.5 39.4,41.8 38.5,42.7 C37.2,44 37.2,46.2 38.5,47.5 C39.8,48.8 42,48.8 43.3,47.5 C44.2,46.6 44.5,45.2 44.1,44.1 Z" id="Path" fill="#EEF8F2"></path>
                        <g id="Group" transform="translate(13.000000, 1.000000)" fill="#E76A56">
                            <path d="M24.1,28.3 C22.7,28.8 21.4,29.6 20.2,30.8 C19.8,31.2 19.1,31.2 18.7,30.8 C18.3,30.4 18.3,29.7 18.7,29.3 C20.2,27.8 21.9,26.8 23.8,26.2 C23.9,26.9 24,27.6 24.1,28.3 Z" id="Path"></path>
                            <path d="M21.8,18.8 C19.1,18.8 16.3,19.8 14.3,21.9 C13.9,22.3 13.2,22.3 12.8,21.9 C12.4,21.5 12.4,20.9 12.8,20.5 C15.1,18.2 18,17 21,16.8 C21.3,17.5 21.6,18.1 21.8,18.8 Z" id="Path"></path>
                            <path d="M17.5,10.1 C14.3,9.6 10.9,10.6 8.4,13.1 C8,13.5 7.3,13.5 6.9,13.1 C6.5,12.7 6.5,12 6.9,11.6 C9.4,9.1 12.7,7.9 15.9,7.9 C16.5,8.6 17,9.4 17.5,10.1 Z" id="Path"></path>
                            <path d="M8.5,1.3 C6.3,1.6 4.1,2.6 2.4,4.3 C2,4.7 1.4,4.7 1,4.3 C0.6,3.9 0.6,3.3 1,2.9 C2.3,1.6 3.8,0.6 5.5,0 C6.4,0.2 7.5,0.7 8.5,1.3 Z" id="Path"></path>
                        </g>
                    </g>
                    <g id="Group" transform="translate(271.000000, 110.000000)">
                        <path d="M18.7836735,5.43673469 L23.3142857,0.906122449 C29.2040816,6.94693878 32.8285714,15.1020408 32.9795918,24.1632653 L0.0571428571,24.1632653 L18.7836735,5.43673469 Z" id="Path" fill="#FF7B65"></path>
                        <path d="M0.0571428571,24.1632653 L18.7836735,5.43673469 C23.4653061,10.2693878 26.3346939,16.9142857 26.4857143,24.1632653 L0.0571428571,24.1632653 Z" id="Path" fill="#FFD15C"></path>
                        <path d="M24.2204082,21.8979592 C25.277551,20.9918367 25.4285714,19.3306122 24.522449,18.2734694 C23.6163265,17.2163265 21.955102,17.0653061 20.8979592,17.9714286 C20.444898,18.2734694 20.5959184,19.0285714 21.0489796,19.7836735 L19.0857143,21.444898 L20.444898,23.1061224 L22.4081633,21.444898 C23.1632653,21.8979592 23.9183673,22.2 24.2204082,21.8979592 Z" id="Path" fill="#22A45D"></path>
                        <path d="M10.0244898,18.122449 C8.66530612,18.122449 7.60816327,19.1795918 7.60816327,20.5387755 C7.60816327,21.8979592 8.66530612,22.955102 10.0244898,22.955102 C11.3836735,22.955102 12.4408163,21.8979592 12.4408163,20.5387755 C12.4408163,19.1795918 11.3836735,18.122449 10.0244898,18.122449 Z M10.0244898,22.2 C9.11836735,22.2 8.51428571,21.5959184 8.51428571,20.6897959 C8.51428571,19.7836735 9.26938776,19.1795918 10.0244898,19.1795918 C10.9306122,19.1795918 11.5346939,19.9346939 11.5346939,20.6897959 C11.5346939,21.444898 10.7795918,22.2 10.0244898,22.2 Z" id="Shape" fill="#FF7B65"></path>
                        <path d="M17.5755102,11.477551 C16.2163265,11.477551 15.1591837,12.5346939 15.1591837,13.8938776 C15.1591837,15.2530612 16.2163265,16.3102041 17.5755102,16.3102041 C18.9346939,16.3102041 19.9918367,15.2530612 19.9918367,13.8938776 C19.9918367,12.5346939 18.9346939,11.477551 17.5755102,11.477551 Z M17.5755102,15.555102 C16.6693878,15.555102 16.0653061,14.8 16.0653061,14.044898 C16.0653061,13.1387755 16.6693878,12.5346939 17.5755102,12.5346939 C18.4816327,12.5346939 19.0857143,13.1387755 19.0857143,14.044898 C19.0857143,14.8 18.4816327,15.555102 17.5755102,15.555102 Z" id="Shape" fill="#E76A56"></path>
                    </g>
                    <g id="Group" transform="translate(133.000000, 0.000000)">
                        <path d="M18.7265306,14.9510204 L0,33.677551 L0,0.755102041 C9.06122449,0.906122449 17.2163265,4.53061224 23.2571429,10.4204082 L18.7265306,14.9510204 Z" id="Path" fill="#FF7B65"></path>
                        <path d="M18.7265306,14.9510204 L0,33.677551 L0,7.24897959 C7.24897959,7.4 13.7428571,10.2693878 18.7265306,14.9510204 Z" id="Path" fill="#FFD15C"></path>
                        <path d="M12.3836735,12.6857143 C11.0244898,12.6857143 9.96734694,13.7428571 9.96734694,15.1020408 C9.96734694,16.4612245 11.0244898,17.5183673 12.3836735,17.5183673 C13.7428571,17.5183673 14.8,16.4612245 14.8,15.1020408 C14.8,13.7428571 13.7428571,12.6857143 12.3836735,12.6857143 Z M12.3836735,16.6122449 C11.477551,16.6122449 10.8734694,16.0081633 10.8734694,15.1020408 C10.8734694,14.1959184 11.477551,13.5918367 12.3836735,13.5918367 C13.2897959,13.5918367 13.8938776,14.3469388 13.8938776,15.1020408 C13.8938776,16.0081633 13.2897959,16.6122449 12.3836735,16.6122449 Z" id="Shape" fill="#FF7058"></path>
                        <circle id="Oval" fill="#22A45D" cx="4.68163265" cy="22.0489796" r="2.86938776"></circle>
                        <path d="M6.79591837,11.0244898 C6.64489796,11.477551 6.19183673,11.7795918 5.73877551,11.6285714 C4.22857143,11.1755102 2.56734694,12.0816327 2.26530612,13.5918367 C2.11428571,14.044898 1.66122449,14.3469388 1.20816327,14.1959184 C0.755102041,14.044898 0.453061224,13.5918367 0.604081633,13.1387755 C1.35918367,10.722449 3.7755102,9.36326531 6.19183673,9.96734694 C6.64489796,10.1183673 6.94693878,10.5714286 6.79591837,11.0244898 Z" id="Path" fill="#5DBB88"></path>
                    </g>
                    <circle id="Oval" fill="#F8B64C" cx="85.2653061" cy="70.2530612" r="2.26530612"></circle>
                    <path d="M96.2897959,57.5673469 C96.2897959,56.0571429 95.0816327,55 93.722449,55 C92.2122449,55 91.155102,56.2081633 91.155102,57.5673469 C91.155102,58.0204082 91.7591837,58.322449 92.6653061,58.4734694 L92.6653061,61.0408163 L94.9306122,61.0408163 L94.9306122,58.4734694 C95.6857143,58.4734694 96.2897959,58.1714286 96.2897959,57.5673469 Z" id="Path" fill="#22A45D"></path>
                    <path d="M272.894936,270.086773 C273.801058,269.18065 273.801058,267.670446 272.894936,266.764324 C271.988814,265.858201 270.478609,265.858201 269.572487,266.764324 C269.270446,267.066365 269.421467,267.670446 269.874528,268.425548 L268.213303,270.086773 L269.723507,271.445956 L271.384732,269.784732 C271.988814,270.237793 272.592895,270.388814 272.894936,270.086773 Z" id="Path" fill="#22A45D"></path>
                    <path d="M146.416327,103 C145.057143,103 144,104.057143 144,105.416327 C144,106.77551 145.057143,107.832653 146.416327,107.832653 C147.77551,107.832653 148.832653,106.77551 148.832653,105.416327 C148.832653,104.057143 147.77551,103 146.416327,103 Z M146.416327,106.926531 C145.510204,106.926531 144.906122,106.322449 144.906122,105.416327 C144.906122,104.510204 145.510204,103.906122 146.416327,103.906122 C147.322449,103.906122 147.926531,104.510204 147.926531,105.416327 C147.926531,106.322449 147.171429,106.926531 146.416327,106.926531 Z" id="Shape" fill="#FF7058"></path>
                    <path d="M85.2653061,321 C84.0571429,321 83,322.057143 83,323.265306 C83,324.473469 84.0571429,325.530612 85.2653061,325.530612 C86.4734694,325.530612 87.5306122,324.473469 87.5306122,323.265306 C87.3795918,322.057143 86.4734694,321 85.2653061,321 Z M85.2653061,324.62449 C84.5102041,324.62449 83.9061224,324.020408 83.9061224,323.265306 C83.9061224,322.510204 84.5102041,321.906122 85.2653061,321.906122 C86.0204082,321.906122 86.6244898,322.510204 86.6244898,323.265306 C86.6244898,324.020408 86.0204082,324.62449 85.2653061,324.62449 Z" id="Shape" fill="#FF7058"></path>
                    <circle id="Oval" fill="#F8B64C" cx="95.8693878" cy="278.869388" r="2.86938776"></circle>
                    <circle id="Oval" fill="#F8B64C" cx="66.8693878" cy="134.869388" r="2.86938776"></circle>
                    <path d="M174.926531,122.889796 C174.473469,122.889796 174.171429,122.436735 174.171429,121.983673 C174.473469,120.473469 173.416327,118.963265 171.755102,118.661224 C171.302041,118.661224 171,118.208163 171,117.755102 C171,117.302041 171.453061,117 171.906122,117 C174.322449,117.453061 175.983673,119.718367 175.681633,122.134694 C175.832653,122.738776 175.379592,123.040816 174.926531,122.889796 Z" id="Path" fill="#F8B64C"></path>
                    <circle id="Oval" fill="#F8B64C" cx="219.114286" cy="277.114286" r="2.11428571"></circle>
                    <path d="M262.021467,255.739834 C260.662283,255.588814 259.75616,254.38065 260.058201,253.021467 C260.209222,251.662283 261.417385,250.75616 262.776569,251.058201 C263.22963,251.058201 263.38065,251.813303 263.531671,252.568405 L265.796977,252.870446 L265.494936,254.833712 L263.078609,254.531671 C262.927589,255.286773 262.474528,255.890854 262.021467,255.739834 Z" id="Path" fill="#22A45D"></path>
                    <circle id="Oval" fill="#F8B64C" cx="119.020408" cy="132.020408" r="3.02040816"></circle>
                    <path d="M306.937034,204.307664 C306.483973,204.307664 306.181932,204.760726 306.332953,205.213787 C306.634994,206.57297 305.577851,207.932154 304.218667,208.234195 C303.765606,208.234195 303.463565,208.687256 303.614585,209.140317 C303.614585,209.593379 304.067647,209.895419 304.520708,209.744399 C306.786014,209.442358 308.296218,207.328072 307.994177,205.062766 C307.843157,204.609705 307.390096,204.307664 306.937034,204.307664 Z" id="Path" fill="#F8B64C"></path>
                    <path d="M70.3617339,341.417868 C69.9086726,341.417868 69.6066318,341.87093 69.7576522,342.323991 C70.059693,343.683174 69.0025502,345.042358 67.6433665,345.344399 C67.1903053,345.344399 66.8882645,345.79746 67.0392849,346.250521 C67.0392849,346.703583 67.4923461,347.005623 67.9454073,346.854603 C70.2107134,346.552562 71.7209175,344.438277 71.4188767,342.17297 C71.2678563,341.568889 70.8147951,341.266848 70.3617339,341.417868 Z" id="Path" fill="#F8B64C"></path>
                    <path d="M82.7454073,331.903583 C82.4433665,332.205623 81.8392849,332.205623 81.5372441,331.752562 C80.4801012,330.544399 78.6678563,330.393379 77.459693,331.450521 C77.1576522,331.752562 76.5535706,331.752562 76.2515298,331.299501 C75.949489,330.99746 75.949489,330.393379 76.4025502,330.091338 C78.3658155,328.430113 81.0841828,328.732154 82.7454073,330.544399 C83.0474481,331.148481 83.0474481,331.601542 82.7454073,331.903583 Z" id="Path" fill="#F8B64C"></path>
                    <path d="M294.704381,188.903583 C294.402341,189.205623 293.798259,189.205623 293.496218,188.752562 C292.439075,187.544399 290.62683,187.393379 289.418667,188.450521 C289.116626,188.752562 288.512545,188.752562 288.210504,188.299501 C287.908463,187.99746 287.908463,187.393379 288.361524,187.091338 C290.32479,185.430113 293.043157,185.732154 294.704381,187.544399 C295.157443,188.148481 295.006422,188.601542 294.704381,188.903583 Z" id="Path" fill="#F8B64C"></path>
                </g>
            </g>
        </g>
    </g>
</svg>