<?xml version="1.0" encoding="UTF-8"?>
<svg width="301px" height="301px" viewBox="0 0 301 301" version="1.1" xmlns="http://www.w3.org/2000/svg" xmlns:xlink="http://www.w3.org/1999/xlink">
    <title>image_motor</title>
    <defs>
        <circle id="path-1" cx="149.5" cy="149.5" r="149.5"></circle>
    </defs>
    <g id="-📱-UI" stroke="none" stroke-width="1" fill="none" fill-rule="evenodd">
        <g id="02-Walkthrough" transform="translate(-37.000000, -131.000000)">
            <g id="image_motor" transform="translate(37.095305, 131.195596)">
                <g id="illustration" transform="translate(0.904695, 0.743263)">
                    <mask id="mask-2" fill="white">
                        <use xlink:href="#path-1"></use>
                    </mask>
                    <use id="Mask" fill="#F1EFDD" xlink:href="#path-1"></use>
                    <polygon id="Rectangle" fill="#FBFBFB" mask="url(#mask-2)" points="2 160.56114 304 198.06114 319 237.06114 -26 198.06114"></polygon>
                    <g id="52" mask="url(#mask-2)">
                        <g transform="translate(149.500000, 150.000000) rotate(7.000000) translate(-149.500000, -150.000000) translate(76.000000, 102.000000)">
                            <circle id="Oval" fill="#40596B" fill-rule="nonzero" cx="36.9" cy="70.5" r="25.2"></circle>
                            <path d="M12,70.5 C12,71.4 12,72.6 12.3,73.5 L62.1,73.5 C62.1,72.6 62.4,71.4 62.4,70.5 L12,70.5 Z" id="Path" fill="#334A5E" fill-rule="nonzero"></path>
                            <circle id="Oval" fill="#F2F2F2" fill-rule="nonzero" cx="36.9" cy="70.5" r="11.1"></circle>
                            <path d="M126.3,52.5 L126.3,70.5 L21.9,70.5 L21.9,22.5 L50.4,22.5 C64.5,22.5 75.6,33.9 75.6,48 L75.6,55.5 L87.9,55.5 C88.8,47.4 93.6,40.8 100.2,36.9 C106.8,33.3 110.7,25.8 109.5,18.3 L109.2,16.2 L119.7,16.2 C123.9,27.6 126.3,39.9 126.3,52.5 Z" id="Path" fill="#FFD15C" fill-rule="nonzero"></path>
                            <path d="M36.9,36.3 C18,36.3 2.7,51.6 2.7,70.5 L71.1,70.5 C71.1,51.6 55.8,36.3 36.9,36.3 Z" id="Path" fill="#FF7058" fill-rule="nonzero"></path>
                            <path d="M36.9,39.3 C54.9,39.3 69.3,53.1 70.8,70.5 L71.1,70.5 C71.1,51.6 55.8,36.3 36.9,36.3 C18,36.3 2.7,51.6 2.7,70.5 L3,70.5 C4.5,53.1 19.2,39.3 36.9,39.3 Z" id="Path" fill="#FC6551" fill-rule="nonzero"></path>
                            <path d="M25.8,70.5 C25.8,71.4 26.1,72.6 26.4,73.5 L48,73.5 C48.3,72.6 48.6,71.4 48.6,70.5 L48.6,70.5 L25.8,70.5 L25.8,70.5 Z" id="Path" fill="#CDD6E0" fill-rule="nonzero"></path>
                            <path d="M67.2,31.8 C68.1,31.8 69,31.5 69.6,31.5 C64.8,26.1 57.9,22.5 50.4,22.5 L21.9,22.5 L21.9,31.8 L67.2,31.8 Z" id="Path" fill="#F8B64C" fill-rule="nonzero"></path>
                            <path d="M67.2,28.8 L21.3,28.8 C18.3,28.8 15.9,26.4 15.9,23.4 L15.9,21.6 C15.9,18.6 18.3,16.2 21.3,16.2 L67.2,16.2 C70.2,16.2 72.6,18.6 72.6,21.6 L72.6,23.4 C72.6,26.4 70.2,28.8 67.2,28.8 Z" id="Path" fill="#FF7058" fill-rule="nonzero"></path>
                            <path d="M120.6,19.2 L119.7,19.2 C118.5,19.5 114,20.4 109.5,20.7 C109.5,19.8 109.5,19.2 109.2,18.3 L108.9,16.2 L119.4,16.2 C120,17.1 120.3,18 120.6,19.2 Z" id="Path" fill="#F8B64C" fill-rule="nonzero"></path>
                            <path d="M119.4,16.2 C119.4,16.2 102.9,19.8 99.3,16.2 C96.9,13.8 96.9,4.5 99.3,2.1 C102.9,-1.5 119.4,2.1 119.4,2.1 L119.4,16.2 Z" id="Path" fill="#40596B" fill-rule="nonzero"></path>
                            <rect id="Rectangle" fill="#F8B64C" fill-rule="nonzero" x="119.4" y="2.1" width="3.3" height="14.1"></rect>
                            <path d="M103.2,12 L94.5,12 C92.7,12 91.5,10.5 91.5,9 L91.5,9 C91.5,7.2 93,6 94.5,6 L103.2,6 C105,6 106.2,7.5 106.2,9 L106.2,9 C106.2,10.8 105,12 103.2,12 Z" id="Path" fill="#CDD6E0" fill-rule="nonzero"></path>
                            <g id="Group" stroke-width="1" fill="none" fill-rule="evenodd" transform="translate(96.000000, 51.000000)">
                                <circle id="Oval" fill="#40596B" fill-rule="nonzero" cx="27.6" cy="28.2" r="16.5"></circle>
                                <path d="M27.6,11.4 C18.6,11.4 11.1,18.9 11.1,27.9 C11.1,30.6 11.7,33.3 12.9,35.7 L43.5,24.6 C42.3,17.1 35.4,11.4 27.6,11.4 Z" id="Path" fill="#334A5E" fill-rule="nonzero"></path>
                                <circle id="Oval" fill="#F2F2F2" fill-rule="nonzero" cx="27.6" cy="28.2" r="6.6"></circle>
                                <path d="M34.2,28.2 C34.2,24.6 31.2,21.6 27.6,21.6 C24,21.6 21,24.6 21,28.2 C21,29.7 21.6,31.2 22.5,32.4 L34.2,28.2 C34.2,28.2 34.2,28.2 34.2,28.2 Z" id="Path" fill="#CDD6E0" fill-rule="nonzero"></path>
                                <path d="M18.9,3.6 C6,8.4 -0.9,22.8 3.9,35.7 L51,18.6 C46.5,5.7 32.1,-0.9 18.9,3.6 Z" id="Path" fill="#FF7058" fill-rule="nonzero"></path>
                                <path d="M3.3,34.2 C1.2,22.5 8.1,10.8 19.8,6.6 C31.2,2.4 43.8,6.9 50.1,16.8 C50.1,16.8 50.1,16.8 50.1,16.8 C50.1,16.5 49.8,16.2 49.8,15.9 C46.2,9 39.6,4.2 32.1,3 C31.8,3 31.2,2.7 30.9,2.7 C30.6,2.7 30,2.7 29.7,2.7 C28.8,2.7 27.6,2.7 26.7,2.7 C26.7,2.7 26.7,2.7 26.7,2.7 C25.5,2.7 24.6,3 23.4,3 C23.1,3 23.1,3 22.8,3 C21.9,3.3 20.7,3.6 19.8,3.9 C19.8,3.9 19.5,3.9 19.5,3.9 C6.6,8.1 4.4408921e-16,21.6 3.3,34.2 Z" id="Path" fill="#FC6551" fill-rule="nonzero"></path>
                            </g>
                        </g>
                    </g>
                </g>
                <g id="Group-2" transform="translate(10.904695, 46.804404)">
                    <circle id="Oval" fill="#22A45D" cx="248" cy="204" r="5"></circle>
                    <circle id="Oval-Copy" fill="#22A45D" cx="131" cy="26" r="5"></circle>
                    <circle id="Oval-Copy-2" fill="#22A45D" cx="5" cy="36" r="5"></circle>
                    <circle id="Oval-Copy-3" fill="#22A45D" cx="25" cy="146" r="5"></circle>
                    <polygon id="Polygon-Copy-3" fill="#FFD841" points="13.5 4.54747351e-13 20 6.5 13.5 13 7 6.5"></polygon>
                    <polygon id="Polygon" fill="#FFD841" points="60.5 162 67 168.5 60.5 175 54 168.5"></polygon>
                    <polygon id="Polygon-Copy" fill="#FFD841" points="259.5 175 266 181.5 259.5 188 253 181.5"></polygon>
                    <polygon id="Polygon-Copy-2" fill="#FFD841" points="147.5 51 154 57.5 147.5 64 141 57.5"></polygon>
                </g>
            </g>
        </g>
    </g>
</svg>